<?xml version="1.0" encoding="utf-8"?>
<!-- Generator: Adobe Illustrator 16.0.0, SVG Export Plug-In . SVG Version: 6.00 Build 0)  -->
<!DOCTYPE svg PUBLIC "-//W3C//DTD SVG 1.1//EN" "http://www.w3.org/Graphics/SVG/1.1/DTD/svg11.dtd">
<svg version="1.1" id="Layer_1" xmlns="http://www.w3.org/2000/svg" xmlns:xlink="http://www.w3.org/1999/xlink" x="0px" y="0px"
	 width="512px" height="512px" viewBox="0 0 512 512" enable-background="new 0 0 512 512" xml:space="preserve">
<g id="Layer_3">
</g>
<g id="Layer_2_00000047780783931961898110000017782810473855264385_" display="none">
</g>
<g id="Layer_1_00000011019812979797637250000013099173256079383702_">
	<path fill="#1BADC5" d="M181.465,204.376c-2.271,9.087-9.089,13.634-20.45,18.175c-2.272,2.274-4.544,2.274-6.816,2.274
		c-36.354,11.359-54.531,27.264-54.531,49.983c0,6.817,2.271,13.635,4.543,15.907c2.272,2.271,9.088,4.54,18.178,4.54h122.695
		l18.177,181.774h11.36l18.18-181.772h124.967c9.088,0,15.902-2.271,18.175-4.542c2.272-2.272,4.545-9.09,4.545-15.906
		c0-24.991-18.178-38.623-54.53-49.984l0,0c-2.274,0-4.546,0-6.818-2.272c-11.36-4.543-18.176-9.089-20.446-18.177L331.427,88.499
		v-4.544c0-4.543,4.542-9.088,15.906-13.633h2.27l0,0c11.36-2.272,18.176-9.088,18.176-15.904c0-9.089-2.269-15.904-6.816-18.177
		c-4.548-2.271-11.364-2.271-20.451-2.271H199.642c-9.089,0-18.177,0-20.449,4.544c-4.546,2.271-6.818,6.815-6.818,15.904
		c0,6.816,6.818,13.633,18.177,15.904h2.271h2.272C204.184,72.595,211,77.139,211,83.955v4.544L181.465,204.376z"/>
</g>
</svg>
