<?xml version="1.0" encoding="UTF-8"?>
<!DOCTYPE svg PUBLIC "-//W3C//DTD SVG 1.1//EN" "http://www.w3.org/Graphics/SVG/1.1/DTD/svg11.dtd">
<svg xmlns="http://www.w3.org/2000/svg" version="1.1" width="23px" height="25px" style="shape-rendering:geometricPrecision; text-rendering:geometricPrecision; image-rendering:optimizeQuality; fill-rule:evenodd; clip-rule:evenodd" xmlns:xlink="http://www.w3.org/1999/xlink">
<g><path style="opacity:0.533" fill="#fefffe" d="M 8.5,-0.5 C 10.1667,-0.5 11.8333,-0.5 13.5,-0.5C 14.3981,1.90525 15.8981,3.90525 18,5.5C 18.2969,8.91396 18.9635,12.2473 20,15.5C 20.7083,16.3805 21.5416,17.0472 22.5,17.5C 22.5,18.8333 22.5,20.1667 22.5,21.5C 20.2537,22.2096 17.9204,22.7096 15.5,23C 14.944,23.3826 14.6107,23.8826 14.5,24.5C 12.5,24.5 10.5,24.5 8.5,24.5C 8.38929,23.8826 8.05596,23.3826 7.5,23C 4.79341,22.6049 2.12674,22.1049 -0.5,21.5C -0.5,20.1667 -0.5,18.8333 -0.5,17.5C 1.01739,17.4894 2.18405,16.8228 3,15.5C 3.0062,10.4334 4.67287,6.10003 8,2.5C 8.48278,1.55198 8.64945,0.551975 8.5,-0.5 Z M 9.5,4.5 C 11.5824,4.47199 13.4157,5.13865 15,6.5C 15.2565,9.55701 15.7565,12.557 16.5,15.5C 12.878,16.6586 9.21134,16.8253 5.5,16C 6.52559,11.9984 7.85892,8.16507 9.5,4.5 Z"/></g>
<g><path style="opacity:0.004" fill="#fefffe" d="M 19.5,10.5 C 20.8333,11.1667 20.8333,11.1667 19.5,10.5 Z"/></g>
</svg>
