<svg width="121" height="37" viewBox="0 0 121 37" fill="none" xmlns="http://www.w3.org/2000/svg">
<g clip-path="url(#clip0_6577_1164)">
<path d="M119.898 11.1232C118.812 8.11347 115.854 5.95219 112.379 5.95219H112.306C110.047 5.95219 108.011 6.86387 106.562 8.32741C105.11 6.86387 103.074 5.95219 100.818 5.95219H100.745C98.7594 5.95219 96.9442 6.65722 95.5502 7.82417V7.23097C95.5026 6.6402 95.0011 6.17585 94.3818 6.17585H89.0514C88.3996 6.17585 87.873 6.68639 87.873 7.32092V35.3885C87.873 36.023 88.3996 36.5335 89.0514 36.5335H94.3818C94.976 36.5335 95.4649 36.1032 95.5427 35.5465L95.5402 15.3972C95.5402 15.3267 95.5427 15.261 95.5502 15.1954C95.6354 14.2959 96.3149 13.5568 97.388 13.4644H97.5861H98.1452H98.3708C98.8196 13.5033 99.1982 13.6565 99.4966 13.8874C99.9604 14.2448 100.219 14.7943 100.219 15.3972L100.239 35.4468C100.239 36.0813 100.768 36.5943 101.417 36.5943H106.747C107.377 36.5943 107.888 36.1081 107.918 35.5027L107.916 15.3704C107.913 14.7092 108.229 14.1111 108.783 13.7562C109.057 13.586 109.385 13.4717 109.764 13.4377H109.962H110.521H110.747C111.9 13.5349 112.597 14.3834 112.594 15.3704L112.614 35.3933C112.614 36.0278 113.143 36.5384 113.793 36.5384H119.123C119.773 36.5384 120.302 36.0278 120.302 35.3933V13.8583C120.302 12.3899 120.131 11.765 119.898 11.1232Z" fill="#54C1F0"/>
<path d="M83.8123 6.247H80.7635V1.45765C80.7635 1.45279 80.7635 1.44793 80.7635 1.44307C80.7635 0.866886 80.2821 0.400108 79.6879 0.400108C79.6177 0.400108 79.55 0.409832 79.4848 0.421989C76.105 1.32151 76.782 5.86045 70.6117 6.247H70.4738H70.0124C69.9222 6.247 69.8369 6.25916 69.7542 6.27618C69.2277 6.39044 68.8315 6.84506 68.8315 7.38964V12.5582C68.8315 13.1879 69.3606 13.7009 70.0124 13.7009H73.2292L73.2242 35.6176C73.2242 36.2424 73.7457 36.7481 74.3901 36.7481H79.6603C80.3021 36.7481 80.8236 36.2424 80.8236 35.6176L80.8261 13.7009H83.8123C84.4616 13.7009 84.9907 13.1879 84.9907 12.5582V7.38964C84.9907 6.75998 84.4616 6.247 83.8123 6.247Z" fill="#54C1F0"/>
<path d="M64.6341 6.2515H59.3037C58.6544 6.2515 58.1278 6.76448 58.1278 7.39414V18.0814C58.1153 18.7427 57.5637 19.2727 56.8792 19.2727H54.6478C53.9558 19.2727 53.3967 18.733 53.3967 18.062L53.3766 7.39414C53.3766 6.76448 52.8476 6.2515 52.1982 6.2515H46.8679C46.216 6.2515 45.6895 6.76448 45.6895 7.39414V19.1074C45.6895 23.5564 48.9614 26.729 53.5521 26.729C53.5521 26.729 56.9971 26.729 57.1024 26.7485C57.7242 26.8165 58.2081 27.3222 58.2081 27.9446C58.2081 28.5597 57.7342 29.0629 57.1199 29.1383C57.0898 29.1431 57.0623 29.1504 57.0297 29.1553L49.2347 29.182C48.5828 29.182 48.0563 29.695 48.0563 30.3247V35.4908C48.0563 36.1229 48.5828 36.6335 49.2347 36.6335H57.9498C62.5431 36.6335 65.8125 33.4633 65.8125 29.0119V7.39414C65.8125 6.76448 65.286 6.2515 64.6341 6.2515Z" fill="white"/>
<path d="M13.0398 15.7194V18.1311V18.909C13.0398 19.5776 12.4806 20.1222 11.7911 20.1222L8.40889 20.1246V13.7331H11.7911C12.4806 13.7331 13.0398 14.2729 13.0398 14.9438V15.7194ZM13.5086 6.24765H1.85749C1.21815 6.24765 0.70166 6.7509 0.70166 7.36841V12.4325C0.70166 12.4422 0.704167 12.4519 0.704167 12.4616C0.704167 12.486 0.70166 12.5103 0.70166 12.5322V28.7746V35.453C0.70166 36.0753 1.18305 36.5834 1.77977 36.598H1.88006H7.21043C7.85981 36.598 8.38883 36.0875 8.38883 35.4554L8.40889 27.6004H13.5086C17.7759 27.6004 20.7495 24.7292 20.7495 20.5744V13.2834C20.7495 9.12856 17.7759 6.24765 13.5086 6.24765Z" fill="white"/>
<path d="M35.1566 27.853V28.6602C35.1566 28.7258 35.1466 28.789 35.1366 28.8498C35.124 28.9082 35.1065 28.9641 35.0864 29.0176C34.921 29.4698 34.4546 29.798 33.9005 29.798H31.6816C30.9896 29.798 30.4255 29.2874 30.4255 28.6602V27.6853C30.4255 27.6731 30.423 27.661 30.423 27.6488L30.4255 25.0548V25.0499V24.7631V24.2428L30.428 24.2355C30.4305 23.6107 30.9896 23.105 31.6816 23.105H33.9005C34.595 23.105 35.1566 23.6131 35.1566 24.2428V27.853ZM34.3092 6.27667H26.9129C26.2585 6.27667 25.7294 6.75803 25.7294 7.3488V9.35935C25.7294 9.37151 25.7319 9.3861 25.7319 9.39825C25.7319 9.41284 25.7294 9.42743 25.7294 9.44201V12.1965C25.7294 12.8213 26.2911 13.3318 26.9831 13.3318H34.0259C34.5825 13.4169 35.0238 13.8108 35.0864 14.4259V15.092C35.0238 15.6779 34.5875 16.1058 34.056 16.1544H30.5684C25.93 16.1544 22.6255 19.1423 22.6255 23.3384V29.195V29.3482C22.6255 33.52 25.4662 36.4885 30.072 36.4885H39.7374C41.4724 36.4885 42.8789 35.2145 42.8789 33.6465V14.0344C42.8789 9.27913 40.3516 6.27667 34.3092 6.27667Z" fill="white"/>
</g>
<defs>
<clipPath id="clip0_6577_1164">
<rect x="0.661133" y="0.368225" width="119.67" height="36.4212" fill="white"/>
</clipPath>
</defs>
</svg>