<svg width="93" height="35" viewBox="0 0 93 35" fill="none" xmlns="http://www.w3.org/2000/svg">
<path d="M1.58798 29.2979H2.2733L1.63647 32.0636C1.54196 32.474 1.55977 32.7829 1.69041 32.989C1.82054 33.1953 2.06276 33.2985 2.4168 33.2985C2.76862 33.2985 3.0571 33.1953 3.28249 32.989C3.50813 32.7829 3.6682 32.474 3.76271 32.0636L4.3993 29.2979H5.09353L4.44111 32.1321C4.29934 32.7479 4.04674 33.2089 3.68502 33.5146C3.32306 33.8207 2.84853 33.9735 2.26143 33.9735C1.67383 33.9735 1.2708 33.821 1.05135 33.5161C0.831646 33.2115 0.793298 32.75 0.935558 32.1321L1.58798 29.2979Z" fill="white"/>
<path d="M5.00098 33.8553L6.09106 29.1205L8.16238 31.9048C8.2178 31.9833 8.27371 32.0674 8.32889 32.1566C8.38406 32.2459 8.44047 32.3462 8.49836 32.4584L9.2255 29.3008H9.86703L8.77769 34.032L6.66283 31.1981C6.60617 31.1217 6.55347 31.0409 6.50424 30.9558C6.45451 30.8706 6.40973 30.7813 6.36866 30.6882L5.63954 33.8553H5.00098Z" fill="white"/>
<path d="M9.81152 33.8522L10.86 29.2977H11.5538L10.5055 33.8522H9.81152Z" fill="white"/>
<path d="M11.502 33.8522L12.5505 29.2977H14.933L14.7883 29.9259H13.0997L12.8382 31.0615H14.5268L14.3774 31.7115H12.6885L12.1959 33.8522H11.502Z" fill="white"/>
<path d="M14.6489 33.8522L15.6974 29.2977H16.3912L15.3429 33.8522H14.6489Z" fill="white"/>
<path d="M16.3403 33.8522L17.3889 29.2977H19.7714L19.6267 29.9259H17.9381L17.6751 31.0676H19.3637L19.2142 31.718H17.5257L17.1867 33.1895H18.8753L18.7229 33.8522H16.3403Z" fill="white"/>
<path d="M20.3674 33.183H20.9508C21.2714 33.183 21.5174 33.1602 21.6883 33.1146C21.8593 33.0691 22.0161 32.9922 22.1599 32.8844C22.3551 32.7375 22.5181 32.5543 22.6493 32.3354C22.7801 32.1167 22.8794 31.8618 22.9462 31.5713C23.0127 31.2809 23.031 31.0267 23.0008 30.8083C22.9704 30.5891 22.8917 30.4062 22.7643 30.2588C22.6686 30.1513 22.5421 30.0741 22.3843 30.0283C22.2262 29.983 21.9689 29.9601 21.6111 29.9601H21.3603H21.1094L20.3674 33.183ZM19.5195 33.8522L20.5681 29.2974H21.504C22.1126 29.2974 22.5332 29.3299 22.7663 29.3952C22.9989 29.4608 23.1911 29.5704 23.3423 29.7237C23.5429 29.9249 23.6706 30.1832 23.7255 30.4981C23.7802 30.8135 23.7609 31.1734 23.6679 31.5778C23.5748 31.9822 23.4286 32.3405 23.2292 32.6526C23.0303 32.9649 22.7836 33.2224 22.4902 33.4256C22.2683 33.5792 22.0302 33.6886 21.7774 33.7542C21.5238 33.8192 21.1458 33.8522 20.642 33.8522H20.4552H19.5195Z" fill="white"/>
<path d="M27.0477 31.2017H27.2259C27.6106 31.2017 27.8776 31.1566 28.0265 31.0676C28.1757 30.9786 28.2759 30.8209 28.3278 30.5948C28.3838 30.3522 28.3548 30.1809 28.2405 30.0816C28.1262 29.982 27.8857 29.9318 27.5183 29.9318H27.3402L27.0477 31.2017ZM26.8644 31.8078L26.3938 33.8522H25.7437L26.7924 29.2977H27.8422C28.1532 29.2977 28.3781 29.3157 28.5166 29.352C28.6547 29.388 28.7687 29.4479 28.8588 29.531C28.9684 29.6368 29.0404 29.7793 29.075 29.9586C29.1094 30.1382 29.102 30.3357 29.0525 30.5511C29.0025 30.7669 28.9189 30.966 28.8011 31.1487C28.6834 31.3311 28.5453 31.4743 28.3875 31.5778C28.2593 31.6609 28.118 31.72 27.9632 31.755C27.808 31.7905 27.5752 31.8078 27.2642 31.8078H27.1274H26.8644Z" fill="white"/>
<path d="M29.9093 32.0635H31.0991L30.9004 31.0242C30.891 30.958 30.8821 30.8819 30.8744 30.7957C30.8673 30.7095 30.8623 30.6136 30.8591 30.5078C30.8131 30.6074 30.7668 30.7003 30.7206 30.7864C30.6745 30.8724 30.6298 30.9516 30.5857 31.0242L29.9093 32.0635ZM31.4165 33.8522L31.202 32.6793H29.5105L28.7447 33.8522H28.0161L31.1733 29.1174L32.1484 33.8522H31.4165Z" fill="white"/>
<path d="M33.1419 33.8522L33.6213 31.7676L32.7524 29.2977H33.4816L34.0209 30.8438C34.0333 30.8834 34.0481 30.9351 34.0652 30.9995C34.0825 31.0638 34.0993 31.133 34.1152 31.2078C34.1587 31.1353 34.2035 31.0663 34.2483 31.0023C34.2931 30.938 34.3383 30.8791 34.3841 30.825L35.6541 29.2977H36.3483L34.3096 31.7676L33.8299 33.8522H33.1419Z" fill="white"/>
<path d="M39.7646 31.604C39.7648 31.5687 39.7747 31.4715 39.794 31.3117C39.8089 31.179 39.8205 31.0689 39.8289 30.9817C39.7876 31.0856 39.7389 31.1895 39.6829 31.293C39.6268 31.3966 39.5625 31.5024 39.489 31.6104L37.8133 34.0371L37.2665 31.5608C37.2432 31.4589 37.2254 31.3604 37.2135 31.2652C37.2017 31.1697 37.1935 31.0753 37.1895 30.9817C37.1658 31.0774 37.1356 31.1772 37.0987 31.2821C37.0619 31.3869 37.0178 31.4964 36.9661 31.6104L35.9918 33.8534H35.3535L37.4553 29.1058L38.0535 31.9806C38.0622 32.0261 38.0748 32.102 38.0901 32.2078C38.1055 32.3135 38.1235 32.4442 38.1445 32.5996C38.2153 32.4689 38.3172 32.3032 38.4513 32.102C38.487 32.048 38.5142 32.0066 38.5325 31.9775L40.4244 29.1058L40.3638 33.8534H39.7191L39.7646 31.604Z" fill="white"/>
<path d="M40.9175 33.8522L41.9663 29.2977H44.3488L44.2041 29.9259H42.5153L42.2525 31.0676H43.9411L43.7916 31.718H42.1028L41.7641 33.1895H43.4527L43.2998 33.8522H40.9175Z" fill="white"/>
<path d="M44.0962 33.8553L45.1863 29.1205L47.2576 31.9048C47.313 31.9833 47.3689 32.0674 47.4241 32.1566C47.4793 32.2459 47.5357 32.3462 47.5936 32.4584L48.3207 29.3008H48.9625L47.8729 34.032L45.758 31.1981C45.7014 31.1217 45.6487 31.0409 45.5995 30.9558C45.5497 30.8706 45.5049 30.7813 45.4639 30.6882L44.7348 33.8553H44.0962Z" fill="white"/>
<path d="M51.1768 29.9259L50.273 33.8522H49.579L50.4825 29.9259H49.3481L49.4929 29.2977H52.4499L52.3054 29.9259H51.1768Z" fill="white"/>
<path d="M51.8976 32.9406L52.5147 32.6672C52.5208 32.8701 52.5812 33.0253 52.6965 33.132C52.8118 33.239 52.9783 33.2923 53.1965 33.2923C53.4024 33.2923 53.5805 33.2311 53.7299 33.1086C53.8796 32.9864 53.9783 32.8225 54.0256 32.6173C54.0872 32.3495 53.9335 32.111 53.5661 31.9018C53.5147 31.8707 53.4751 31.8478 53.4479 31.8331C53.0335 31.5885 52.7707 31.367 52.6599 31.1689C52.5493 30.9708 52.5265 30.7287 52.5923 30.4427C52.6777 30.0714 52.8652 29.7707 53.1545 29.5405C53.4437 29.3102 53.7797 29.195 54.1629 29.195C54.4778 29.195 54.7265 29.2598 54.9083 29.3895C55.0904 29.5194 55.1943 29.7054 55.2201 29.948L54.6092 30.2466C54.5563 30.1036 54.4865 29.9989 54.3999 29.9323C54.3131 29.8659 54.2032 29.8327 54.0714 29.8327C53.8848 29.8327 53.7245 29.8849 53.5906 29.9881C53.4575 30.092 53.3702 30.2309 53.3299 30.4054C53.267 30.6791 53.4494 30.934 53.8771 31.1704C53.91 31.189 53.9358 31.2039 53.9543 31.2142C54.3287 31.4213 54.5721 31.6242 54.6837 31.8223C54.7955 32.0207 54.8175 32.2679 54.749 32.5643C54.6498 32.9959 54.4437 33.3386 54.1305 33.5925C53.8173 33.8464 53.4437 33.9735 53.0105 33.9735C52.6465 33.9735 52.3692 33.8845 52.1782 33.706C51.9867 33.5277 51.8932 33.2727 51.8976 32.9406Z" fill="white"/>
<path d="M57.0254 33.8522L58.0739 29.2977H58.7679L57.7194 33.8522H57.0254Z" fill="white"/>
<path d="M58.7163 33.8553L59.8064 29.1205L61.8777 31.9048C61.9331 31.9833 61.989 32.0674 62.0442 32.1566C62.0994 32.2459 62.1558 32.3462 62.2137 32.4584L62.9408 29.3008H63.5824L62.493 34.032L60.3782 31.1981C60.3215 31.1217 60.2686 31.0409 60.2193 30.9558C60.1698 30.8706 60.1248 30.7813 60.0837 30.6882L59.3549 33.8553H58.7163Z" fill="white"/>
<path d="M65.7964 29.9259L64.8923 33.8522H64.1986L65.1021 29.9259H63.9678L64.1125 29.2977H67.0696L66.9251 29.9259H65.7964Z" fill="white"/>
<path d="M66.5527 33.8522L67.6013 29.2977H69.9838L69.8393 29.9259H68.1508L67.8878 31.0676H69.5763L69.4266 31.718H67.7381L67.3994 33.1895H69.0879L68.9353 33.8522H66.5527Z" fill="white"/>
<path d="M71.0266 31.2387H71.1523C71.5195 31.2387 71.7741 31.1934 71.9156 31.1021C72.0571 31.0108 72.1551 30.8492 72.208 30.6167C72.2659 30.3658 72.2422 30.1888 72.136 30.0865C72.0309 29.9833 71.803 29.9321 71.4532 29.9321H71.3275L71.0266 31.2387ZM70.8505 31.8142L70.3812 33.8522H69.731L70.7797 29.2977H71.7478C72.0316 29.2977 72.2474 29.3173 72.3946 29.3569C72.542 29.3962 72.6608 29.4613 72.7506 29.5529C72.8575 29.6625 72.9267 29.805 72.9589 29.9792C72.9903 30.1531 72.9822 30.344 72.9347 30.5511C72.8508 30.9161 72.7023 31.2019 72.4896 31.4085C72.2768 31.6146 72.0042 31.7388 71.6719 31.78L72.665 33.8522H71.8802L70.9292 31.8142H70.8505Z" fill="white"/>
<path d="M73.0767 33.8522L74.1252 29.2977H76.5077L76.3633 29.9259H74.6744L74.4129 31.0615H76.1017L75.9521 31.7115H74.2635L73.7706 33.8522H73.0767Z" fill="white"/>
<path d="M77.3131 32.0635H78.5031L78.3045 31.0242C78.2948 30.958 78.2862 30.8819 78.2785 30.7957C78.2713 30.7095 78.2664 30.6136 78.2632 30.5078C78.2169 30.6074 78.1706 30.7003 78.1246 30.7864C78.0786 30.8724 78.0336 30.9516 77.9895 31.0242L77.3131 32.0635ZM78.8206 33.8522L78.6061 32.6793H76.9145L76.1488 33.8522H75.4199L78.5771 29.1174L79.5524 33.8522H78.8206Z" fill="white"/>
<path d="M84.0689 30.4054C83.9138 30.2271 83.7371 30.0933 83.5387 30.004C83.3408 29.9153 83.1211 29.8703 82.8799 29.8703C82.4135 29.8703 81.9969 30.03 81.6309 30.3493C81.2645 30.6688 81.0231 31.0825 80.906 31.5908C80.793 32.0824 80.8422 32.4876 81.0535 32.8069C81.2648 33.1264 81.5874 33.2864 82.0206 33.2864C82.2737 33.2864 82.5251 33.2385 82.7755 33.1431C83.0258 33.0476 83.2784 32.9036 83.5325 32.7104L83.3398 33.5475C83.1204 33.6905 82.8925 33.7975 82.6567 33.8678C82.4207 33.9383 82.1745 33.9735 81.9179 33.9735C81.5914 33.9735 81.3024 33.9167 81.0518 33.8024C80.8009 33.6885 80.5958 33.5207 80.4372 33.2985C80.2793 33.0808 80.1782 32.8243 80.1349 32.5285C80.0908 32.2332 80.1074 31.9183 80.1841 31.5841C80.261 31.2504 80.3894 30.9369 80.5688 30.6433C80.7479 30.3498 80.9694 30.092 81.2321 29.8703C81.4959 29.6462 81.7779 29.4769 82.0783 29.3614C82.3789 29.2467 82.6889 29.1888 83.0078 29.1888C83.2587 29.1888 83.4887 29.2279 83.6983 29.3058C83.9079 29.3833 84.1013 29.5008 84.2792 29.6591L84.0689 30.4054Z" fill="white"/>
<path d="M84.1357 33.8522L85.1843 29.2977H87.5668L87.4221 29.9259H85.7338L85.4708 31.0676H87.1593L87.0097 31.718H85.3211L84.9824 33.1895H86.671L86.5183 33.8522H84.1357Z" fill="white"/>
<path d="M71.4773 25.3292H66.7065L73.3416 0.412575H78.1126L71.4773 25.3292Z" fill="white"/>
<path d="M69.0006 1.20383C68.6698 0.729704 68.1597 0.490454 67.4667 0.490454H41.2323L39.9329 5.37061H44.7065V5.36778H63.7988L62.4099 10.5829H43.317L43.3187 10.5721H38.5472L34.5869 25.4382H39.3609L42.0186 15.4602H63.4804C64.1507 15.4602 64.7816 15.2225 65.3748 14.7471C65.9669 14.2712 66.3566 13.6844 66.5434 12.9836L69.2008 3.0036C69.3948 2.27942 69.3277 1.67846 69.0006 1.20383Z" fill="white"/>
<path d="M31.8067 23.7745C31.5433 24.761 30.6793 25.4435 29.6944 25.4435H5.07931C4.40858 25.4435 3.91005 25.2058 3.58223 24.7309C3.25466 24.2555 3.1844 23.6674 3.37169 22.9669L9.37781 0.486052H14.1531L8.78848 20.5649H27.89L33.2546 0.486052H38.0289L31.8067 23.7745Z" fill="white"/>
<path d="M86.3526 0.460356L92.3929 12.9509L79.6953 25.4382L86.3526 0.460356Z" fill="#27803B"/>
<path d="M82.1176 0.460356L88.1534 12.9509L75.4507 25.4382L82.1176 0.460356Z" fill="#E9661C"/>
</svg>