<svg width="32" height="32" viewBox="0 0 32 32" fill="none" xmlns="http://www.w3.org/2000/svg">
<g clip-path="url(#clip0)">
<path d="M17.9441 16.7278C18.198 16.7761 18.4559 16.7998 18.7142 16.7987C19.5271 16.7962 20.3222 16.5569 21.0047 16.1095C21.6221 16.9943 22.5546 17.6012 23.6053 17.8022C23.8623 17.8537 24.1235 17.8809 24.3855 17.8833C25.3498 17.8756 26.2819 17.5303 27.0238 16.906C27.7657 16.2816 28.2718 15.4166 28.4564 14.4573C28.5607 13.9151 28.5579 13.3573 28.448 12.8162C28.3381 12.2751 28.1234 11.7615 27.8162 11.3051C27.3242 10.5859 26.6258 10.0375 25.8158 9.73404C26.3759 4.04783 28.7664 3.07479 28.8165 3.07479C28.9743 3.02009 29.1086 2.91155 29.1962 2.76771C29.2839 2.62386 29.3195 2.45364 29.2971 2.28611C29.2747 2.11858 29.1955 1.96414 29.0732 1.84918C28.9509 1.73421 28.793 1.66585 28.6264 1.65577C26.5438 1.46443 24.4526 1.91298 22.6251 2.94302C21.7521 1.89857 20.5258 1.22197 19.1863 1.04574C17.8469 0.869509 16.4907 1.20633 15.3835 1.99025C15.2213 2.09455 15.1062 2.25944 15.0631 2.44917C15.02 2.63891 15.0525 2.8382 15.1534 3.00384C15.6304 3.74814 16.2799 4.36272 17.0454 4.79384C17.8108 5.22497 18.6688 5.45952 19.5444 5.47698C19.7177 5.48627 19.8913 5.48627 20.0645 5.47698C19.4509 6.39889 19.0164 7.4309 18.7842 8.51774C17.7522 8.51287 16.7554 8.89776 15.9883 9.59733C15.2212 10.2969 14.7387 11.261 14.635 12.3015C14.5313 13.342 14.8139 14.3844 15.4275 15.2252C16.0412 16.0661 16.9419 16.6451 17.9541 16.8494L17.9441 16.7278ZM24.6155 12.2376C24.2408 12.1719 23.8556 12.257 23.5418 12.4746C23.228 12.6923 23.0103 13.0255 22.9352 13.4032L22.005 13.2208C22.0621 12.9081 22.1799 12.6099 22.3516 12.3437C22.5233 12.0775 22.7455 11.8485 23.0052 11.67C23.5288 11.3081 24.172 11.1697 24.7956 11.2848L24.6155 12.2376ZM26.516 3.11533C25.2342 4.97164 24.4957 7.15697 24.3855 9.41983C23.5646 9.41004 22.7597 9.65014 22.075 10.1091C21.6021 9.4317 20.9403 8.91288 20.1746 8.61909C20.3546 7.70687 21.3848 3.75389 26.516 3.16601V3.11533ZM16.8338 2.81125C17.5671 2.48369 18.3806 2.38682 19.1688 2.5332C19.9571 2.67959 20.6838 3.06247 21.2548 3.63226C20.5265 3.98481 19.7069 4.09526 18.913 3.94782C18.1191 3.80039 17.3914 3.40261 16.8338 2.81125ZM17.3739 10.5854C17.6325 10.4049 17.9242 10.2787 18.2317 10.2143C18.5392 10.1499 18.8563 10.1486 19.1643 10.2104L18.9843 11.1632C18.7987 11.1255 18.6075 11.1259 18.4219 11.1641C18.2364 11.2024 18.0604 11.2779 17.9041 11.3862C17.5911 11.6052 17.3756 11.9401 17.3039 12.3187L16.3637 12.1362C16.4847 11.5042 16.848 10.9465 17.3739 10.5854Z" fill="#ccd6f6"/>
<path d="M31.8171 24.3601C29.1465 21.4713 26.756 22.3329 24.2054 23.2654L22.9052 23.7215C22.7351 21.9072 21.6449 20.8024 19.5944 20.3767L7.75181 17.9339L7.96186 17.1231C8.01082 16.9536 7.99472 16.7717 7.91681 16.6138C7.83889 16.4558 7.70491 16.3336 7.54176 16.2717C5.346 15.3452 2.95468 14.9965 0.590227 15.2581C0.422534 15.2892 0.271193 15.3797 0.163132 15.5133C0.0550706 15.647 -0.00270079 15.8151 9.70564e-05 15.9879V27.5326C9.70564e-05 27.7261 0.0759707 27.9118 0.211027 28.0486C0.346083 28.1855 0.529258 28.2624 0.720256 28.2624H4.47108C4.62996 28.2625 4.7843 28.2087 4.90941 28.1094C5.03453 28.0102 5.1232 27.8713 5.16124 27.715L5.35128 27.0157C6.75159 27.6441 9.73225 28.9719 11.3526 29.6003C13.3947 30.4589 15.5741 30.9329 17.784 30.999C18.924 31.0157 20.057 30.8163 21.1248 30.4112C24.6956 29.0226 31.327 25.6473 31.6071 25.5054C31.7051 25.4517 31.79 25.3765 31.8558 25.2853C31.9215 25.1942 31.9664 25.0893 31.9872 24.9784C32.008 24.869 32.0034 24.7562 31.9739 24.6489C31.9444 24.5416 31.8907 24.4428 31.8171 24.3601ZM3.92096 26.8028H1.43041V16.667C3.12906 16.5818 4.82779 16.8332 6.43152 17.4069L3.92096 26.8028ZM20.6247 29.0631C18.4442 29.9044 15.4235 29.6307 11.8827 28.2522C10.2124 27.6035 7.01165 26.1744 5.72136 25.5966L7.38173 19.3428L19.3044 21.7957C21.0247 22.1606 21.4748 22.9816 21.4948 24.1269C18.6133 24.7831 15.5973 24.4256 12.943 23.1134L12.3628 24.4412C14.2851 25.367 16.3815 25.8625 18.5096 25.8939C20.6377 25.9254 22.7475 25.4922 24.6956 24.6236C26.916 23.8229 28.3664 23.2958 30.0467 24.6236C28.0663 25.6676 23.3553 27.9988 20.6247 29.0631Z" fill="#ccd6f6"/>
</g>
<defs>
<clipPath id="clip0">
<rect width="32" height="32" fill="#ccd6f6"/>
</clipPath>
</defs>
</svg>