<?xml version="1.0" encoding="UTF-8"?>
<!-- Svg Vector Icons : http://www.onlinewebfonts.com/icon -->
<!DOCTYPE svg PUBLIC "-//W3C//DTD SVG 1.1//EN" "http://www.w3.org/Graphics/SVG/1.1/DTD/svg11.dtd">
<svg fill="#ccd6f6" version="1.1" xmlns="http://www.w3.org/2000/svg" xmlns:xlink="http://www.w3.org/1999/xlink" x="0px" y="0px" viewBox="0 0 1000 1000" enable-background="new 0 0 1000 1000" xml:space="preserve">
<metadata> Svg Vector Icons : http://www.onlinewebfonts.com/icon </metadata>
<g><g transform="translate(0.000000,512.000000) scale(0.100000,-0.100000)"><path d="M4525.3,5006c-952.3-95.8-1872-473.3-2605.9-1065.4c-249.1-201.2-651.5-615.1-835.4-858.4c-513.5-684.1-831.6-1467.7-960-2356.8C87.7,464.9,93.4-274.7,135.6-548.7c134.1-871.8,438.8-1605.7,956.1-2297.4c176.3-237.6,697.5-758.8,935.1-935.1c839.2-626.6,1770.5-958,2805.2-994.4c1120.9-42.2,2209.2,302.7,3129,992.5c233.8,174.4,653.4,582.5,843.1,818.2c709,881.4,1094.1,1971.6,1096,3096.4c0,1099.8-398.5,2220.8-1101.7,3084.9c-187.8,231.8-609.3,640-837.3,810.5c-674.5,505.8-1431.3,822-2276.3,952.3C5445.1,5015.6,4770.6,5032.9,4525.3,5006z M5416.3,4699.5c732-65.1,1473.5-323.8,2079-722.4c312.3-205,496.3-354.5,749.2-605.5C8968.8,2645.4,9413.3,1742.9,9557,696.7c15.4-101.6,26.8-354.5,26.8-574.8c0-569.1-63.2-958-241.4-1485c-224.2-664.9-586.3-1249.3-1090.3-1755.1c-720.4-724.3-1611.4-1166.9-2672.9-1322.1c-226.1-34.5-942.7-34.5-1168.8,0c-728.1,107.3-1356.6,339.1-1916.1,707c-321.9,210.8-500.1,356.4-766.4,624.7C559-1932.2,122.2-230.7,572.4,1376.9c389,1389.2,1446.7,2540.7,2801.3,3046.6c404.3,153.3,797.1,239.5,1276.1,285.5C4808.9,4722.5,5213.2,4718.6,5416.3,4699.5z"/><path d="M3224.3,2792.9c-26.8-26.8-30.7-295.1-30.7-2678.7c0-2033,5.7-2653.8,23-2671c32.6-32.6,3523.7-32.6,3556.3,0c17.3,17.2,23,636.1,23,2669.1c0,2540.8-1.9,2650-34.5,2678.7c-32.6,30.7-184,32.6-1772.4,32.6C3437,2823.6,3251.1,2819.8,3224.3,2792.9z M5075.3,997.6C5217,725.5,5517.9,384.4,5767,217.7c70.9-47.9,126.5-90.1,126.5-95.8S5837.9,74,5767,26.1c-251-168.6-548-503.9-691.7-779.9c-38.3-76.6-74.7-139.9-80.5-139.9c-5.7,0-42.2,63.2-80.5,139.9c-141.8,272.1-442.6,613.2-691.7,779.9c-70.9,47.9-126.5,90.1-126.5,95.8s55.6,47.9,122.6,92c249.1,168.6,553.8,511.6,695.5,783.7c38.3,76.6,74.7,139.9,80.5,139.9C5000.5,1137.4,5037,1074.2,5075.3,997.6z"/></g></g>
</svg>