<?xml version="1.0" encoding="windows-1252"?>
<!-- Generator: Adobe Illustrator 19.0.0, SVG Export Plug-In . SVG Version: 6.00 Build 0)  -->
<svg fill="#ccd6f6" version="1.1" id="Capa_1" xmlns="http://www.w3.org/2000/svg" xmlns:xlink="http://www.w3.org/1999/xlink" x="0px" y="0px" viewBox="0 0 489.5 489.5" style="enable-background:new 0 0 489.5 489.5;" xml:space="preserve">
<g>
	<path d="M370.75,0h-252v40.3h-86.2v66.2c0,47.6,38.6,86.2,86.2,86.2h11.2c10.8,23.8,28.7,43.6,51,56.8   c23.4,13.8,37.2,39.6,37.2,66.8v52.3h-30.9c-9.5,0-17.3,7.7-17.3,17.3v22.7h-26.4v80.9h202.3v-80.9h-26.4v-22.7   c0-9.5-7.7-17.3-17.3-17.3h-30.9v-52.3c0-27.2,13.8-53,37.2-66.8c22.3-13.1,40.3-33,51-56.8h11.3c47.6,0,86.2-38.6,86.2-86.2V40.4   h-86.2V0z M118.75,149.1c-23.5,0-42.6-19.1-42.6-42.6V84h42.6v56.8c0,2.8,0.1,5.5,0.3,8.2h-0.3V149.1z M279.75,412.5v43.3h-70   v-43.3H279.75z M236.15,105.4c2.1,2.4,6,4.9,11.8,7.4c13.3,5.6,23.1,11.2,29.4,16.8c6.3,5.6,9.4,13.6,9.4,24   c0,9.9-3.2,17.9-9.4,23.9c-5.4,5.1-12.3,8.4-20.8,10v14.4c0,1.9-1.6,3.4-3.5,3.4h-12.6c-1.9,0-3.5-1.5-3.5-3.4v-14   c-10.6-1.2-19.5-5-26.6-11.4c-6.6-5.9-10.1-14.3-10.6-25.1c-0.1-2.2,1.8-4.1,4-4.1l20.6-0.4h0.1c2,0,3.8,1.5,4,3.5   c0.5,5.2,2,9.1,4.5,11.6c3.1,3.1,7.1,4.6,12.1,4.6c4.1,0,7.3-1.2,9.4-3.6c2.1-2.4,3.2-5.5,3.2-9.4c0-4.5-1.1-8-3.3-10.4   c-2.2-2.5-6.1-4.9-11.6-7.3c-13.6-5.3-23.4-10.8-29.6-16.2c-6.2-5.5-9.3-13.5-9.3-24.2c0-9.6,3.3-17.5,9.8-23.8   c6-5.7,13.7-9.1,23.3-10.5V46.5c0-1.9,1.6-3.4,3.5-3.4h12.6c1.9,0,3.5,1.5,3.5,3.4v15.4c9,1.8,16.2,5.8,21.7,12.1   c5.3,6,8.2,13.5,8.7,22.5c0.1,2.2-1.8,4.1-4,4.1l-20.7,0.3h-0.1c-2,0-3.8-1.5-4-3.5c-0.4-4.5-1.5-7.9-3.5-10.3   c-2.4-3-5.6-4.6-9.7-4.6s-7.1,1.3-9.1,3.8c-1.9,2.5-2.9,5.7-2.9,9.6C232.95,99.8,234.05,103,236.15,105.4z M413.35,84v22.5   c0,23.5-19.1,42.6-42.6,42.6h-0.3c0.2-2.7,0.3-5.5,0.3-8.2V84H413.35z"/>
</g>
<g>
</g>
<g>
</g>
<g>
</g>
<g>
</g>
<g>
</g>
<g>
</g>
<g>
</g>
<g>
</g>
<g>
</g>
<g>
</g>
<g>
</g>
<g>
</g>
<g>
</g>
<g>
</g>
<g>
</g>
</svg>