<?xml version="1.0" encoding="UTF-8"?>
<!-- Svg Vector Icons : http://www.onlinewebfonts.com/icon -->
<!DOCTYPE svg PUBLIC "-//W3C//DTD SVG 1.1//EN" "http://www.w3.org/Graphics/SVG/1.1/DTD/svg11.dtd">
<svg fill="#ccd6f6" version="1.1" xmlns="http://www.w3.org/2000/svg" xmlns:xlink="http://www.w3.org/1999/xlink" x="0px" y="0px" viewBox="0 0 1000 1000" enable-background="new 0 0 1000 1000" xml:space="preserve">
<metadata> Svg Vector Icons : http://www.onlinewebfonts.com/icon </metadata>
<g><g transform="translate(0.000000,511.000000) scale(0.100000,-0.100000)"><path d="M2561.7,4987.3c-373.6-72.5-709.7-406.5-788.9-784.4c-33-156-33-8055.6,0-8198.5c85.7-375.7,426.3-700.9,808.6-771.3c160.4-30.8,4678.2-30.8,4838.6,0c382.4,70.3,722.9,395.5,808.7,771.3c30.8,134.1,30.8,8079.8,0,8213.8c-59.3,259.3-268.1,534-498.8,657c-265.9,142.8-149.4,136.2-2729.1,134C3713.2,5007,2616.7,4998.2,2561.7,4987.3z M3387.9,3930.3c70.3-76.9,70.3-76.9,92.3-28.6c52.7,112.1,283.5,156,413.1,76.9c90.1-57.1,151.6-206.6,131.8-318.6c-17.6-94.5-79.1-164.8-362.6-426.3L3447.3,3036l-257.1,241.7c-140.6,136.2-270.3,272.5-287.9,307.6c-68.1,129.7-19.8,316.4,103.3,393.3c57.1,37.4,98.9,44,191.2,37.4C3300.1,4009.4,3326.4,3996.2,3387.9,3930.3z M4728.3,1146.2c59.3-26.4,145-74.7,191.2-105.5l81.3-57.1l83.5,57.1c175.8,123,285.7,156,509.8,158.2c180.2,0,226.3-8.8,334-59.3c419.7-195.6,591.1-712,377.9-1133.8c-63.7-129.7-138.5-211-615.3-663.6c-296.6-283.5-573.5-534-613.1-555.9c-54.9-28.6-83.5-33-127.4-17.6c-33,13.2-307.6,259.3-613.1,551.6c-483.4,457.1-566.9,547.1-635,676.8c-246.1,463.6-8.8,1043.8,483.4,1184.4C4328.4,1221,4594.3,1203.4,4728.3,1146.2z M6626.9-2962.9c30.8-22,65.9-61.5,79.1-85.7l24.2-48.3l24.2,52.7c54.9,120.8,246.1,175.8,378,107.7c147.2-76.9,208.8-235.1,153.8-395.5c-26.4-70.3-534-564.7-569.1-551.5c-11,4.4-138.4,123-283.5,263.7c-228.5,221.9-265.9,270.3-279.1,345c-26.4,153.8,48.3,294.4,186.8,351.6C6413.7-2892.6,6558.8-2912.3,6626.9-2962.9z"/></g></g>
</svg>