<?xml version="1.0" encoding="UTF-8"?>
<!-- Svg Vector Icons : http://www.onlinewebfonts.com/icon -->
<!DOCTYPE svg PUBLIC "-//W3C//DTD SVG 1.1//EN" "http://www.w3.org/Graphics/SVG/1.1/DTD/svg11.dtd">
<svg fill="#ccd6f6" version="1.1" xmlns="http://www.w3.org/2000/svg" xmlns:xlink="http://www.w3.org/1999/xlink" x="0px" y="0px" viewBox="0 0 1000 1000" enable-background="new 0 0 1000 1000" xml:space="preserve">
<metadata> Svg Vector Icons : http://www.onlinewebfonts.com/icon </metadata>
<g><g transform="translate(0.000000,512.000000) scale(0.100000,-0.100000)"><path d="M4525.3,5006c-952.3-95.8-1872-473.3-2605.9-1065.4c-249.1-201.2-651.5-615.1-835.4-858.4c-513.5-684.1-831.6-1467.7-960-2356.8C87.7,464.9,93.4-274.7,135.6-548.7c134.1-871.8,438.8-1605.7,956.1-2297.4c176.3-237.6,697.5-758.8,935.1-935.1c839.2-626.6,1770.5-958,2805.2-994.4c1120.9-42.2,2209.2,302.7,3129,992.5c233.8,174.4,653.4,582.5,843.1,818.2c709,881.4,1094.1,1971.6,1096,3096.4c0,1099.8-398.5,2220.8-1101.7,3084.9c-187.8,231.8-609.3,640-837.3,810.5c-674.5,505.8-1431.3,822-2276.3,952.3C5445.1,5015.6,4770.6,5032.9,4525.3,5006z M5416.3,4699.5c732-65.1,1473.5-323.8,2079-722.4c312.3-205,496.3-354.5,749.2-605.5C8968.8,2645.4,9413.3,1742.9,9557,696.7c15.4-101.6,26.8-354.5,26.8-574.8c0-569.1-63.2-958-241.4-1485c-224.2-664.9-586.3-1249.3-1090.3-1755.1c-720.4-724.3-1611.4-1166.9-2672.9-1322.1c-226.1-34.5-942.7-34.5-1168.8,0c-728.1,107.3-1356.6,339.1-1916.1,707c-321.9,210.8-500.1,356.4-766.4,624.7C559-1932.2,122.2-230.7,572.4,1376.9c389,1389.2,1446.7,2540.7,2801.3,3046.6c404.3,153.3,797.1,239.5,1276.1,285.5C4808.9,4722.5,5213.2,4718.6,5416.3,4699.5z"/><path d="M3780,2289c-1013.6-956.1-1151.6-1092.2-1253.1-1245.5c-115-170.5-199.3-362.1-264.4-595.9c-26.8-95.8-36.4-189.7-34.5-412c0-258.7,5.7-302.7,51.7-440.7c97.7-297,274-521.2,548-701.3c243.3-159,578.7-266.3,831.6-266.3c346.8,1.9,601.7,63.2,850.8,205c80.5,44.1,149.5,80.5,151.4,76.7c7.7-7.7-76.6-574.8-116.9-799c-92-496.3-258.7-935-398.5-1051.9c-42.2-34.5-42.2-103.5,1.9-141.8c32.6-28.7,118.8-32.6,850.8-32.6c764.5,0,816.2,1.9,845,34.5c47.9,51.7,40.2,93.9-32.6,180.1c-159,185.9-312.3,590.1-412,1080.7c-67.1,339.2-124.5,714.7-113,728.1c5.7,3.8,78.6-24.9,160.9-67.1c82.4-42.2,229.9-99.6,323.8-128.4c155.2-46,203.1-51.7,469.5-53.7c348.7-1.9,454.1,21.1,718.5,151.4c266.3,130.3,480.9,329.6,638,590.2c293.2,484.8,212.7,1140.1-206.9,1697.7c-172.5,228-2331.9,2251.4-2412.4,2259.1C4925.8,3362,4808.9,3256.6,3780,2289z"/></g></g>
</svg>