<?xml version="1.0" encoding="UTF-8"?>
<!-- Svg Vector Icons : http://www.onlinewebfonts.com/icon -->
<!DOCTYPE svg PUBLIC "-//W3C//DTD SVG 1.1//EN" "http://www.w3.org/Graphics/SVG/1.1/DTD/svg11.dtd">
<svg fill="#ccd6f6" version="1.1" xmlns="http://www.w3.org/2000/svg" xmlns:xlink="http://www.w3.org/1999/xlink" x="0px" y="0px" viewBox="0 0 1000 1000" enable-background="new 0 0 1000 1000" xml:space="preserve">
<metadata> Svg Vector Icons : http://www.onlinewebfonts.com/icon </metadata>
<g><g transform="translate(0.000000,512.000000) scale(0.100000,-0.100000)"><path d="M4525.3,5006c-952.3-95.8-1872-473.3-2605.9-1065.4c-249.1-201.2-651.5-615.1-835.4-858.4c-513.5-684.1-831.6-1467.7-960-2356.8C87.7,464.9,93.4-274.7,135.6-548.7c134.1-871.8,438.8-1605.7,956.1-2297.4c176.3-237.6,697.5-758.8,935.1-935.1c839.2-626.6,1770.5-958,2805.2-994.4c1120.9-42.2,2209.2,302.7,3129,992.5c233.8,174.4,653.4,582.5,843.1,818.2c709,881.4,1094.1,1971.6,1096,3096.4c0,1099.8-398.5,2220.8-1101.7,3084.9c-187.8,231.8-609.3,640-837.3,810.5c-674.5,505.8-1431.3,822-2276.3,952.3C5445.1,5015.6,4770.6,5032.9,4525.3,5006z M5416.3,4699.5c732-65.1,1473.5-323.8,2079-722.4c312.3-205,496.3-354.5,749.2-605.5C8968.8,2645.4,9413.3,1742.9,9557,696.7c15.4-101.6,26.8-354.5,26.8-574.8c0-569.1-63.2-958-241.4-1485c-224.2-664.9-586.3-1249.3-1090.3-1755.1c-720.4-724.3-1611.4-1166.9-2672.9-1322.1c-226.1-34.5-942.7-34.5-1168.8,0c-728.1,107.3-1356.6,339.1-1916.1,707c-321.9,210.8-500.1,356.4-766.4,624.7C559-1932.2,122.2-230.7,572.4,1376.9c389,1389.2,1446.7,2540.7,2801.3,3046.6c404.3,153.3,797.1,239.5,1276.1,285.5C4808.9,4722.5,5213.2,4718.6,5416.3,4699.5z"/><path d="M4349.1,2907.9c-11.5-5.7-53.6-141.8-93.9-304.7c-61.3-247.2-69-298.9-47.9-323.8c23-26.8,132.2-30.7,990.6-30.7h965.7V116.2c0-2293.6-3.8-2209.3,95.8-2193.9c46,5.7,59.4,47.9,297,925.5c138,505.8,392.8,1439,565.2,2075.1c274,1004,310.4,1157.3,285.5,1182.2c-24.9,24.9-2956.5,816.3-3012.1,812.4C4383.6,2917.5,4362.5,2911.7,4349.1,2907.9z"/><path d="M2867.9,2095.5c-38.3-38.3-38.3-63.2-38.3-2376c0-2312.7,0-2337.6,38.3-2376c38.3-38.3,63.2-38.3,1559.7-38.3c942.7,0,1540.5,7.7,1571.2,19.2l49.8,19.2v2374c0,2330,0,2376-36.4,2397.1c-24.9,13.4-551.8,19.2-1571.2,19.2C2931.2,2133.8,2906.2,2133.8,2867.9,2095.5z M3381.4,1785.1c13.4-13.4,23-40.2,23-63.2c0-21.1,17.2-49.8,40.2-63.2c28.7-19.2,36.4-40.2,32.6-86.2c-5.7-55.6-11.5-61.3-78.6-67.1c-70.9-5.8-72.8-9.6-61.3-63.2c11.5-47.9,7.7-55.6-26.8-55.6c-32.6,0-36.4,7.7-19.2,61.3c9.6,34.5,17.2,63.2,17.2,63.2c0,1.9-28.7-1.9-63.2-5.7c-74.7-7.7-115,28.7-105.4,95.8c3.8,24.9,24.9,51.7,49.8,63.2c23,9.6,42.2,32.6,42.2,51.7C3232,1788.9,3331.6,1834.9,3381.4,1785.1z M4592.4,399.7C4694,346.1,4784,202.4,4784,89.3c0-42.2,17.2-63.2,76.6-97.7c44.1-24.9,95.8-78.6,126.5-128.4c44.1-74.7,49.8-103.5,42.1-206.9c-9.6-145.6-61.3-231.9-176.3-283.6c-101.6-46-195.4-46-289.3,1.9c-40.2,21.1-76.6,36.4-78.6,32.6c-9.6-9.6,47.9-298.9,67.1-335.3c11.5-21.1,21.1-44.1,21.1-49.8c0-5.8-65.1-11.5-143.7-11.5h-143.7l26.8,44.1c28.7,42.2,88.1,260.6,88.1,323.8c0,30.6-5.7,28.7-80.5-3.8c-97.7-44.1-185.9-47.9-270.2-11.5c-74.7,30.7-157.1,116.9-184,189.7c-63.2,164.8,32.6,389,191.6,454.1c47.9,21.1,55.6,34.5,55.6,99.6C4113.4,353.7,4372.1,512.8,4592.4,399.7z M5588.8-1997.3c-28.7-70.9-24.9-80.5,28.7-69c26.8,3.8,61.3-1.9,76.6-15.3c36.4-30.7,38.3-126.5,1.9-147.5c-13.4-7.7-32.6-40.2-44.1-72.8c-30.6-95.8-178.2-84.3-178.2,11.5c0,21.1-7.7,36.4-17.3,36.4c-9.6,0-32.6,13.4-47.9,30.6c-69,67.1-7.6,172.5,88.2,153.3c28.7-5.7,53.6-7.7,53.6-5.7c0,1.9-7.7,32.6-17.2,67.1c-17.2,57.5-15.3,61.3,26.8,61.3C5602.2-1947.5,5606-1953.2,5588.8-1997.3z"/></g></g>
</svg>