<?xml version="1.0" encoding="UTF-8"?>
<!-- Generator: Adobe Illustrator 23.1.0, SVG Export Plug-In . SVG Version: 6.00 Build 0)  -->
<svg version="1.1" id="Layer_1" xmlns="http://www.w3.org/2000/svg" xmlns:xlink="http://www.w3.org/1999/xlink" x="0px" y="0px" viewBox="0 0 32 32" style="enable-background:new 0 0 32 32;" xml:space="preserve">
<style type="text/css">
	.st0{fill:#CCD6F6;}
</style>
<g>
	<path class="st0" d="M14.1,20c-0.2,0-0.4,0-0.6,0c-2.4,0-4.9,0-7.3,0c-0.6,0-1.1-0.2-1.4-0.8c-0.3-0.6-0.1-1.1,0.2-1.6   C9.5,12,13.9,6.3,18.2,0.6c0.4-0.5,0.8-0.7,1.4-0.6c0.5,0.1,0.8,0.4,1,0.9c0.1,0.2,0.1,0.5,0,0.7c-0.9,3.4-1.8,6.8-2.6,10.1   c0,0,0,0.1,0,0.1c0.1,0.1,0.3,0,0.4,0c2.5,0,5,0,7.5,0c0.6,0,1.1,0.2,1.4,0.8c0.3,0.6,0.1,1.1-0.2,1.5c-4.4,5.7-8.8,11.4-13.2,17.1   c-0.4,0.5-0.8,0.7-1.4,0.6c-0.5-0.1-0.8-0.4-1-0.9c-0.1-0.3-0.1-0.5,0-0.8c0.9-3.4,1.8-6.7,2.6-10.1C14,20.1,14,20.1,14.1,20z"/>
</g>
</svg>